<svg width="64" height="64" viewBox="0 0 64 64" fill="none" xmlns="http://www.w3.org/2000/svg">
<g clip-path="url(#clip0_44_16)">
<path d="M2.13234 2.13333V0C1.83717 0.000137476 1.54523 0.061528 1.275 0.180289C1.00478 0.299049 0.762133 0.472595 0.562423 0.689951C0.362713 0.907306 0.210282 1.16374 0.11477 1.44303C0.0192585 1.72233 -0.0172547 2.0184 0.00753994 2.31253L2.13234 2.13333ZM61.8657 2.13333L63.9905 2.31253C64.0153 2.0184 63.9788 1.72233 63.8832 1.44303C63.7877 1.16374 63.6353 0.907306 63.4356 0.689951C63.2359 0.472595 62.9932 0.299049 62.723 0.180289C62.4528 0.061528 62.1608 0.000137476 61.8657 0V2.13333ZM57.599 53.3333L58.2731 55.3557C58.6692 55.2235 59.0178 54.978 59.2756 54.6496C59.5335 54.3212 59.6893 53.9244 59.7238 53.5083L57.599 53.3333ZM31.999 61.8667L31.3249 63.8891C31.7624 64.0351 32.2356 64.0351 32.6731 63.8891L31.999 61.8667ZM6.39901 53.3333L4.27421 53.5083C4.30868 53.9244 4.46451 54.3212 4.72237 54.6496C4.98024 54.978 5.32881 55.2235 5.72487 55.3557L6.39901 53.3333ZM44.799 14.9333H46.9323V12.8H44.799V14.9333ZM44.799 40.5333L45.4731 42.5557L46.9323 42.0693V40.5333H44.799ZM31.999 44.8L31.3249 46.8224L31.999 47.0485L32.6731 46.8224L31.999 44.8ZM19.199 40.5333H17.0657V42.0693L18.5249 42.5557L19.199 40.5333ZM2.13234 4.26667H61.8657V0L2.13234 0V4.26667ZM59.7409 1.95413L55.4742 53.1541L59.7238 53.5083L63.9905 2.31253L59.7409 1.95413ZM56.9249 51.3109L31.3249 59.8443L32.6731 63.8891L58.2731 55.3557L56.9249 51.3109ZM32.6731 59.8443L7.07314 51.3109L5.72487 55.3557L31.3249 63.8891L32.6731 59.8443ZM8.52381 53.1584L4.25714 1.9584L0.00753994 2.31253L4.27421 53.5083L8.52381 53.1584ZM44.799 12.8H17.0657V17.0667H44.799V12.8ZM25.599 29.8667H44.799V25.6H25.599V29.8667ZM42.6657 27.7333V40.5333H46.9323V27.7333H42.6657ZM44.1249 38.5109L31.3249 42.7776L32.6731 46.8224L45.4731 42.5557L44.1249 38.5109ZM32.6731 42.7776L19.8731 38.5109L18.5249 42.5557L31.3249 46.8224L32.6731 42.7776ZM21.3323 40.5333V34.1333H17.0657V40.5333H21.3323ZM42.6657 14.9333V27.7333H46.9323V14.9333H42.6657Z" fill="#000201"/>
</g>
<defs>
<clipPath id="clip0_44_16">
<rect width="64" height="64" fill="white"/>
</clipPath>
</defs>
</svg>
