<svg width="64" height="64" viewBox="0 0 64 64" fill="none" xmlns="http://www.w3.org/2000/svg">
<path d="M32 4.26672V40.5334M32 40.5334V49.0667C32 50.7545 31.4995 52.4043 30.5619 53.8076C29.6242 55.2109 28.2915 56.3046 26.7323 56.9505C25.173 57.5964 23.4572 57.7654 21.8019 57.4361C20.1466 57.1068 18.6261 56.2941 17.4327 55.1007C16.2393 53.9073 15.4266 52.3868 15.0973 50.7315C14.7681 49.0762 14.937 47.3604 15.5829 45.8012C16.2288 44.2419 17.3225 42.9092 18.7258 41.9715C20.1291 41.0339 21.779 40.5334 23.4667 40.5334M32 40.5334H23.4667M23.4667 40.5334C21.2035 40.5334 19.033 39.6343 17.4327 38.034C15.8324 36.4337 14.9334 34.2632 14.9334 32.0001C14.9334 29.7369 15.8324 27.5664 17.4327 25.9661C19.033 24.3658 21.2035 23.4667 23.4667 23.4667M23.4667 23.4667H32M23.4667 23.4667H40.5334M23.4667 23.4667C21.2035 23.4667 19.033 22.5677 17.4327 20.9674C15.8324 19.3671 14.9334 17.1966 14.9334 14.9334C14.9334 12.6702 15.8324 10.4997 17.4327 8.89941C19.033 7.2991 21.2035 6.40006 23.4667 6.40006H40.5334C42.7965 6.40006 44.967 7.2991 46.5673 8.89941C48.1676 10.4997 49.0667 12.6702 49.0667 14.9334C49.0667 17.1966 48.1676 19.3671 46.5673 20.9674C44.967 22.5677 42.7965 23.4667 40.5334 23.4667M40.5334 23.4667C42.7965 23.4667 44.967 24.3658 46.5673 25.9661C48.1676 27.5664 49.0667 29.7369 49.0667 32.0001C49.0667 34.2632 48.1676 36.4337 46.5673 38.034C44.967 39.6343 42.7965 40.5334 40.5334 40.5334C38.2702 40.5334 36.0997 39.6343 34.4994 38.034C32.8991 36.4337 32 34.2632 32 32.0001C32 29.7369 32.8991 27.5664 34.4994 25.9661C36.0997 24.3658 38.2702 23.4667 40.5334 23.4667Z" stroke="#000201" stroke-width="3"/>
</svg>
