<svg width="24" height="24" viewBox="0 0 24 24" fill="none" xmlns="http://www.w3.org/2000/svg">
<path d="M21.24 3.70364C20.6826 3.14622 20.0208 2.70411 19.2924 2.40258C18.5641 2.10104 17.7834 1.94599 16.9951 1.94629C16.2068 1.94659 15.4263 2.10222 14.6981 2.4043C13.97 2.70639 13.3085 3.14899 12.7515 3.70683L12.0245 4.44277L11.3034 3.70842L11.2987 3.70374C10.7416 3.14658 10.0802 2.70462 9.3522 2.40309C8.62425 2.10156 7.84403 1.94636 7.05609 1.94636C6.26816 1.94636 5.48794 2.10156 4.75998 2.40309C4.03202 2.70462 3.37059 3.14658 2.81344 3.70374L2.48953 4.02764C1.36432 5.15286 0.732178 6.67898 0.732178 8.27028C0.732178 9.86157 1.36432 11.3877 2.48953 12.5129L11.0383 21.0615L12.0037 22.073L12.0267 22.05L12.0517 22.0749L12.9562 21.1206L21.5639 12.5128C22.6874 11.3867 23.3184 9.86087 23.3184 8.27013C23.3184 6.6794 22.6874 5.15361 21.5639 4.0275L21.24 3.70364ZM20.503 11.4521L12.0267 19.9287L3.55012 11.4521C2.70622 10.6082 2.23212 9.46363 2.23212 8.27016C2.23212 7.07669 2.70622 5.9321 3.55012 5.08819L3.87408 4.76428C4.71757 3.92079 5.86147 3.44672 7.05435 3.44627C8.24724 3.44583 9.39149 3.91903 10.2356 4.76189L12.0212 6.58003L13.8153 4.76428C14.2332 4.34642 14.7293 4.01494 15.2752 3.7888C15.8212 3.56265 16.4064 3.44625 16.9973 3.44625C17.5883 3.44625 18.1734 3.56265 18.7194 3.7888C19.2654 4.01494 19.7614 4.34642 20.1793 4.76428L20.5032 5.08814C21.3459 5.93275 21.8191 7.07711 21.819 8.27017C21.819 9.46323 21.3457 10.6076 20.503 11.4521Z" fill="#959390"/>
</svg>
