<svg width="64" height="64" viewBox="0 0 64 64" fill="none" xmlns="http://www.w3.org/2000/svg">
<g clip-path="url(#clip0_44_28)">
<path d="M53.3333 34.1333V33.4208C53.3333 30.2805 50.7861 27.7333 47.6458 27.7333H42.6666C40.9692 27.7333 39.3414 28.4076 38.1411 29.6078C36.9409 30.808 36.2666 32.4359 36.2666 34.1333C36.2666 35.8307 36.9409 37.4586 38.1411 38.6588C39.3414 39.859 40.9692 40.5333 42.6666 40.5333H46.9333C48.6307 40.5333 50.2585 41.2076 51.4588 42.4078C52.659 43.608 53.3333 45.2359 53.3333 46.9333C53.3333 48.6307 52.659 50.2585 51.4588 51.4588C50.2585 52.659 48.6307 53.3333 46.9333 53.3333H42.6666C40.9692 53.3333 39.3414 52.659 38.1411 51.4588C36.9409 50.2585 36.2666 48.6307 36.2666 46.9333M27.7333 25.6V46.9333C27.7333 48.6307 27.059 50.2585 25.8588 51.4588C24.6586 52.659 23.0307 53.3333 21.3333 53.3333C19.6359 53.3333 18.008 52.659 16.8078 51.4588C15.6076 50.2585 14.9333 48.6307 14.9333 46.9333M5.13331 61.8666H58.8666C60.5235 61.8666 61.8666 60.5235 61.8666 58.8666V5.1333C61.8666 3.47645 60.5235 2.1333 58.8666 2.1333H5.1333C3.47645 2.1333 2.1333 3.47645 2.1333 5.13331V58.8666C2.1333 60.5235 3.47645 61.8666 5.13331 61.8666Z" stroke="#000201" stroke-width="4"/>
</g>
<defs>
<clipPath id="clip0_44_28">
<rect width="64" height="64" fill="white"/>
</clipPath>
</defs>
</svg>
