<svg width="64" height="47" viewBox="0 0 64 47" fill="none" xmlns="http://www.w3.org/2000/svg">
<g clip-path="url(#clip0_44_20)">
<path d="M42.783 41.9452C42.783 43.1653 42.2984 44.3354 41.4356 45.1981C40.5729 46.0608 39.4028 46.5455 38.1828 46.5455H38.1149C37.5176 46.5461 36.9263 46.4272 36.3757 46.1957C35.8251 45.9642 35.3264 45.6249 34.9091 45.1976C34.4777 44.7858 34.1344 44.2907 33.9 43.7423C33.6657 43.1939 33.5451 42.6036 33.5457 42.0073V41.9355V41.9394C33.5513 40.7127 34.041 39.5377 34.9082 38.6701C35.7755 37.8025 36.9502 37.3123 38.177 37.3062H38.2468C39.4996 37.3062 40.6322 37.8279 41.4352 38.6676L41.4371 38.6696C42.2671 39.4841 42.783 40.6187 42.783 41.8715V41.9452ZM21.7561 41.9413V42.0092C21.7561 43.2621 21.2344 44.3947 20.3947 45.1976L20.3927 45.1995C19.9757 45.626 19.4776 45.9647 18.9277 46.1959C18.3778 46.427 17.7873 46.5459 17.1908 46.5455H17.119C15.899 46.5455 14.7289 46.0608 13.8662 45.1981C13.0035 44.3354 12.5188 43.1653 12.5188 41.9452V41.8773C12.5188 40.6225 13.0347 39.4861 13.8667 38.6715C14.2784 38.2401 14.7735 37.8968 15.3219 37.6625C15.8703 37.4281 16.4606 37.3075 17.057 37.3081H17.1287H17.1248C18.3516 37.3137 19.5265 37.8034 20.3941 38.6707C21.2618 39.5379 21.7519 40.7127 21.7581 41.9394L21.7561 41.9413ZM0 0C0.960465 1.02042 1.97836 1.98522 3.04873 2.8897L3.10303 2.9343C4.09794 3.76048 5.20921 4.52267 6.38836 5.18012L6.50085 5.2383C7.56558 5.84727 8.8223 6.44267 10.1275 6.94303L10.3195 7.00703C11.7687 7.53597 13.2569 7.9516 14.7704 8.25018L14.9741 8.28509C16.7984 8.66004 18.6699 8.95483 20.5886 9.16946C22.5073 9.38408 24.8469 9.55733 27.6073 9.68921C30.3677 9.82109 33.2121 9.9103 36.1406 9.95685C39.0691 10.0034 42.5548 10.0267 46.5978 10.0267C49.1992 10.0267 51.487 10.0732 53.4613 10.1663C55.3387 10.2439 57.0919 10.4107 58.816 10.6647L58.5425 10.6318C59.8672 10.8179 61.0444 11.0895 62.1789 11.4502L62.0238 11.4075C62.7995 11.6267 63.4705 12.0087 64.0213 12.5188L64.0174 12.5168C64.3995 12.8873 64.6497 13.3935 64.6904 13.9559V13.9636C64.6859 14.608 64.4931 15.2369 64.1358 15.7731L64.1435 15.7615C63.6528 16.5721 63.1292 17.2742 62.5474 17.9219L62.559 17.9084C61.8945 18.666 61.0573 19.5181 60.0475 20.4645C59.0377 21.4109 57.9517 22.389 56.7893 23.3988C55.627 24.4086 54.3263 25.5218 52.8873 26.7384C49.4248 29.6773 46.7484 31.9884 44.8582 33.6718C45.5428 32.5101 46.2545 31.5074 47.0419 30.5726L47.0148 30.6075C47.903 29.5227 48.7822 28.5356 49.6524 27.6461C50.5225 26.7565 51.4069 25.8347 52.3055 24.8805C53.204 23.9263 53.9798 23.0697 54.6327 22.3108C55.2145 21.6553 55.7207 20.9125 56.1222 20.1096L56.1493 20.0514C56.4851 19.4486 56.6126 18.7519 56.512 18.0693L56.5139 18.0868C56.4159 17.7586 56.2539 17.453 56.0372 17.1877C55.8205 16.9224 55.5534 16.7027 55.2514 16.5411L55.2378 16.5353C54.2438 15.9644 53.1553 15.5768 52.0242 15.391L51.968 15.3833C50.1113 15.0391 48.2337 14.8201 46.3476 14.7278L46.241 14.7239C43.862 14.5739 41.0175 14.5274 37.7076 14.5842C34.5632 14.6217 31.6244 14.5655 28.8912 14.4155C26.1579 14.2655 23.7621 14.0503 21.7038 13.7697C19.6605 13.504 17.6385 13.0944 15.6528 12.544L15.9632 12.6177C14.3388 12.189 12.7401 11.6684 11.1748 11.0584L11.4851 11.1651C10.2548 10.6857 9.07664 10.0821 7.96897 9.36339L8.04461 9.40994C7.13296 8.84176 6.26259 8.20988 5.44 7.51903L5.47491 7.54812C4.79372 6.94301 4.16504 6.28125 3.59564 5.56994L3.57042 5.53891C3.07189 4.9429 2.61258 4.31516 2.19539 3.65964L2.15273 3.58594C1.84242 3.06877 1.46812 2.43265 1.02982 1.67758C0.591515 0.922505 0.248889 0.365253 0.00193939 0.00581818L0 0Z" fill="#000201"/>
</g>
<defs>
<clipPath id="clip0_44_20">
<rect width="64" height="46.5455" fill="white"/>
</clipPath>
</defs>
</svg>
