<svg width="64" height="64" viewBox="0 0 64 64" fill="none" xmlns="http://www.w3.org/2000/svg">
<path d="M27.4774 3.64379L3.64379 27.4731L6.66032 30.4897L30.4897 6.66032L27.4774 3.64379ZM3.64379 36.5227L27.4731 60.3563L30.4897 57.3355L6.66032 33.5062L3.64379 36.5227ZM36.527 60.3521L60.3563 36.527L57.3398 33.5062L33.5105 57.3355L36.527 60.3521ZM60.3563 27.4689L36.527 3.64379L33.5105 6.66032L57.3398 30.4897L60.3563 27.4731V27.4689ZM60.3563 36.527C60.9511 35.9326 61.4228 35.2227 61.7447 34.4459C62.0666 33.6692 62.2323 32.8366 62.2323 31.9958C62.2323 31.155 62.0666 30.3224 61.7447 29.5457C61.4228 28.7689 60.9511 28.0632 60.3563 27.4689L57.3398 30.4854C57.5385 30.6836 57.6961 30.919 57.8036 31.1782C57.9112 31.4373 57.9665 31.7152 57.9665 31.9958C57.9665 32.2764 57.9112 32.5543 57.8036 32.8134C57.6961 33.0726 57.5385 33.308 57.3398 33.5062L60.3563 36.527ZM27.4731 60.3563C28.0675 60.9511 28.7775 61.4228 29.5542 61.7447C30.331 62.0666 31.1635 62.2323 32.0043 62.2323C32.8451 62.2323 33.6777 62.0666 34.4544 61.7447C35.2312 61.4228 35.9369 60.9511 36.5313 60.3563L33.5105 57.3398C33.3123 57.5385 33.0811 57.6961 32.822 57.8036C32.5628 57.9112 32.2849 57.9665 32.0043 57.9665C31.7237 57.9665 31.4459 57.9112 31.1867 57.8036C30.9275 57.6961 30.6921 57.5385 30.4939 57.3398L27.4731 60.3563ZM3.64379 27.4731C3.04906 28.0675 2.57727 28.7775 2.25539 29.5542C1.9335 30.331 1.76782 31.1635 1.76782 32.0043C1.76782 32.8451 1.9335 33.6777 2.25539 34.4544C2.57727 35.2312 3.04906 35.9369 3.64379 36.5313L6.66032 33.5105C6.46165 33.3123 6.30403 33.0811 6.19648 32.822C6.08893 32.5628 6.03358 32.2849 6.03358 32.0043C6.03358 31.7237 6.08893 31.4459 6.19648 31.1867C6.30403 30.9275 6.46165 30.6878 6.66032 30.4897L3.64379 27.4731ZM30.4897 6.66459C30.6878 6.46592 30.9232 6.3083 31.1824 6.20075C31.4416 6.0932 31.7195 6.03784 32.0001 6.03784C32.2807 6.03784 32.5585 6.0932 32.8177 6.20075C33.0769 6.3083 33.3123 6.46592 33.5105 6.66459L36.527 3.64379C35.9326 3.04906 35.2227 2.57727 34.4459 2.25539C33.6692 1.9335 32.8366 1.76782 31.9958 1.76782C31.155 1.76782 30.3224 1.9335 29.5457 2.25539C28.7689 2.57727 28.0632 3.04906 27.4689 3.64379L30.4854 6.66032L30.4897 6.66459ZM21.9563 12.1814L26.223 16.4481L29.2438 13.4273L24.9771 9.16059L21.9563 12.1814ZM32.0001 21.3334C31.4343 21.3334 30.8916 21.1086 30.4916 20.7085C30.0915 20.3085 29.8667 19.7659 29.8667 19.2001H25.6001C25.6001 20.8974 26.2743 22.5253 27.4746 23.7255C28.6748 24.9258 30.3027 25.6001 32.0001 25.6001V21.3334ZM34.1334 19.2001C34.1334 19.7659 33.9086 20.3085 33.5086 20.7085C33.1085 21.1086 32.5659 21.3334 32.0001 21.3334V25.6001C33.6974 25.6001 35.3253 24.9258 36.5255 23.7255C37.7258 22.5253 38.4001 20.8974 38.4001 19.2001H34.1334ZM32.0001 17.0667C32.5659 17.0667 33.1085 17.2915 33.5086 17.6916C33.9086 18.0916 34.1334 18.6343 34.1334 19.2001H38.4001C38.4001 17.5027 37.7258 15.8748 36.5255 14.6746C35.3253 13.4743 33.6974 12.8001 32.0001 12.8001V17.0667ZM32.0001 12.8001C30.3027 12.8001 28.6748 13.4743 27.4746 14.6746C26.2743 15.8748 25.6001 17.5027 25.6001 19.2001H29.8667C29.8667 18.6343 30.0915 18.0916 30.4916 17.6916C30.8916 17.2915 31.4343 17.0667 32.0001 17.0667V12.8001ZM34.7563 24.9771L41.1563 31.3771L44.1729 28.3563L37.7729 21.9563L34.7563 24.9771ZM44.8001 34.1334C44.2343 34.1334 43.6916 33.9086 43.2916 33.5086C42.8915 33.1085 42.6667 32.5659 42.6667 32.0001H38.4001C38.4001 33.6974 39.0743 35.3253 40.2746 36.5255C41.4748 37.7258 43.1027 38.4001 44.8001 38.4001V34.1334ZM46.9334 32.0001C46.9334 32.5659 46.7086 33.1085 46.3086 33.5086C45.9085 33.9086 45.3659 34.1334 44.8001 34.1334V38.4001C46.4974 38.4001 48.1253 37.7258 49.3255 36.5255C50.5258 35.3253 51.2001 33.6974 51.2001 32.0001H46.9334ZM44.8001 29.8667C45.3659 29.8667 45.9085 30.0915 46.3086 30.4916C46.7086 30.8916 46.9334 31.4343 46.9334 32.0001H51.2001C51.2001 30.3027 50.5258 28.6748 49.3255 27.4746C48.1253 26.2743 46.4974 25.6001 44.8001 25.6001V29.8667ZM44.8001 25.6001C43.1027 25.6001 41.4748 26.2743 40.2746 27.4746C39.0743 28.6748 38.4001 30.3027 38.4001 32.0001H42.6667C42.6667 31.4343 42.8915 30.8916 43.2916 30.4916C43.6916 30.0915 44.2343 29.8667 44.8001 29.8667V25.6001ZM29.8667 23.4667V40.5334H34.1334V23.4667H29.8667ZM32.0001 46.9334C31.4343 46.9334 30.8916 46.7086 30.4916 46.3086C30.0915 45.9085 29.8667 45.3659 29.8667 44.8001H25.6001C25.6001 46.4974 26.2743 48.1253 27.4746 49.3255C28.6748 50.5258 30.3027 51.2001 32.0001 51.2001V46.9334ZM34.1334 44.8001C34.1334 45.3659 33.9086 45.9085 33.5086 46.3086C33.1085 46.7086 32.5659 46.9334 32.0001 46.9334V51.2001C33.6974 51.2001 35.3253 50.5258 36.5255 49.3255C37.7258 48.1253 38.4001 46.4974 38.4001 44.8001H34.1334ZM32.0001 42.6667C32.5659 42.6667 33.1085 42.8915 33.5086 43.2916C33.9086 43.6916 34.1334 44.2343 34.1334 44.8001H38.4001C38.4001 43.1027 37.7258 41.4748 36.5255 40.2746C35.3253 39.0743 33.6974 38.4001 32.0001 38.4001V42.6667ZM32.0001 38.4001C30.3027 38.4001 28.6748 39.0743 27.4746 40.2746C26.2743 41.4748 25.6001 43.1027 25.6001 44.8001H29.8667C29.8667 44.2343 30.0915 43.6916 30.4916 43.2916C30.8916 42.8915 31.4343 42.6667 32.0001 42.6667V38.4001Z" fill="#000201"/>
</svg>
