<svg width="30" height="24" viewBox="0 0 30 24" fill="none" xmlns="http://www.w3.org/2000/svg">
<path d="M15.5636 17.6035C15.6274 17.6557 15.678 17.7177 15.7125 17.786C15.7471 17.8543 15.7648 17.9275 15.7648 18.0014C15.7648 18.0754 15.7471 18.1486 15.7125 18.2168C15.678 18.2851 15.6274 18.3472 15.5636 18.3994L14.4261 19.3313C13.2681 20.2808 11.6975 20.8143 10.0598 20.8143C8.42217 20.8143 6.85159 20.2808 5.69359 19.3313C4.5356 18.3817 3.88504 17.0938 3.88504 15.751C3.88504 14.4081 4.5356 13.1202 5.69359 12.1707L8.45007 9.9094C9.56347 8.99538 11.0609 8.46498 12.6357 8.42681C14.2104 8.38864 15.7434 8.84559 16.9207 9.70409C16.9883 9.75334 17.0434 9.81301 17.0828 9.87971C17.1222 9.94641 17.1453 10.0188 17.1506 10.0928C17.1559 10.1668 17.1434 10.2409 17.1137 10.311C17.0841 10.381 17.0379 10.4456 16.9779 10.501C16.9178 10.5564 16.8451 10.6015 16.7637 10.6339C16.6824 10.6662 16.5941 10.6851 16.5038 10.6894C16.4136 10.6938 16.3232 10.6835 16.2378 10.6592C16.1524 10.6349 16.0737 10.5971 16.0061 10.5478C15.0905 9.8809 13.8987 9.52604 12.6746 9.55584C11.4505 9.58564 10.2865 9.99785 9.42073 10.7082L6.66311 12.9657C5.76224 13.7044 5.25614 14.7063 5.25614 15.751C5.25614 16.7957 5.76224 17.7976 6.66311 18.5363C7.56397 19.275 8.78581 19.69 10.0598 19.69C11.3338 19.69 12.5557 19.275 13.4566 18.5363L14.593 17.6035C14.6567 17.5512 14.7323 17.5097 14.8156 17.4814C14.8989 17.4531 14.9882 17.4385 15.0783 17.4385C15.1685 17.4385 15.2577 17.4531 15.341 17.4814C15.4243 17.5097 15.4999 17.5512 15.5636 17.6035ZM23.5747 4.66597C22.4159 3.71758 20.8456 3.18494 19.2085 3.18494C17.5713 3.18494 16.001 3.71758 14.8422 4.66597L13.7046 5.59784C13.5759 5.70339 13.5036 5.84654 13.5036 5.99581C13.5036 6.14508 13.5759 6.28823 13.7046 6.39378C13.8334 6.49933 14.0079 6.55862 14.19 6.55862C14.372 6.55862 14.5466 6.49933 14.6753 6.39378L15.8117 5.45628C16.7126 4.71757 17.9344 4.30256 19.2085 4.30256C20.4825 4.30256 21.7043 4.71757 22.6052 5.45628C23.506 6.19499 24.0121 7.1969 24.0121 8.24159C24.0121 9.28629 23.506 10.2882 22.6052 11.0269L19.8476 13.2947C18.9818 14.005 17.8178 14.4172 16.5937 14.447C15.3696 14.4768 14.1778 14.122 13.2622 13.455C13.1257 13.3556 12.9467 13.3046 12.7645 13.3134C12.5822 13.3222 12.4117 13.39 12.2904 13.5019C12.1691 13.6138 12.107 13.7606 12.1177 13.91C12.1284 14.0595 12.2111 14.1993 12.3476 14.2988C13.5247 15.1567 15.0572 15.6133 16.6315 15.5752C18.2057 15.537 19.7026 15.0069 20.8159 14.0935L23.5724 11.8322C24.1466 11.3622 24.6021 10.8039 24.913 10.1894C25.2239 9.57491 25.384 8.91618 25.3842 8.25089C25.3844 7.5856 25.2247 6.92679 24.9142 6.31215C24.6038 5.6975 24.1486 5.13907 23.5747 4.66878V4.66597Z" fill="white"/>
</svg>
