<svg width="64" height="64" viewBox="0 0 64 64" fill="none" xmlns="http://www.w3.org/2000/svg">
<g clip-path="url(#clip0_44_18)">
<path d="M23.4667 57.6L21.4229 58.2144C21.5543 58.6529 21.8233 59.0375 22.1901 59.3114C22.5569 59.5852 23.002 59.7339 23.4598 59.7353C23.9175 59.7367 24.3636 59.5909 24.7321 59.3193C25.1006 59.0478 25.372 58.6649 25.5061 58.2272L23.4667 57.6ZM40.5333 57.6L38.4896 58.2144C38.6169 58.6381 38.8728 59.0117 39.2218 59.2835C39.5709 59.5554 39.9958 59.712 40.4378 59.7316C40.8797 59.7513 41.3169 59.6331 41.6887 59.3934C42.0605 59.1537 42.3486 58.8043 42.5131 58.3936L40.5333 57.6ZM55.5947 19.9381L57.5787 20.7317L55.5989 19.9381H55.5947ZM32 59.7333C24.6447 59.7333 17.5906 56.8114 12.3896 51.6104C7.18856 46.4094 4.26667 39.3553 4.26667 32H0C0 40.4869 3.37142 48.6263 9.37258 54.6274C15.3737 60.6286 23.5131 64 32 64V59.7333ZM59.7333 32C59.7333 35.642 59.016 39.2483 57.6223 42.6131C56.2285 45.9779 54.1857 49.0352 51.6104 51.6104C49.0352 54.1857 45.9779 56.2285 42.6131 57.6223C39.2483 59.016 35.642 59.7333 32 59.7333V64C40.4869 64 48.6263 60.6286 54.6274 54.6274C60.6286 48.6263 64 40.4869 64 32H59.7333ZM32 4.26667C35.642 4.26667 39.2483 4.98401 42.6131 6.37774C45.9779 7.77147 49.0352 9.81429 51.6104 12.3896C54.1857 14.9649 56.2285 18.0222 57.6223 21.3869C59.016 24.7517 59.7333 28.358 59.7333 32H64C64 23.5131 60.6286 15.3737 54.6274 9.37258C48.6263 3.37142 40.4869 0 32 0V4.26667ZM32 0C23.5131 0 15.3737 3.37142 9.37258 9.37258C3.37142 15.3737 0 23.5131 0 32H4.26667C4.26667 24.6447 7.18856 17.5906 12.3896 12.3896C17.5906 7.18856 24.6447 4.26667 32 4.26667V0ZM8.62293 15.5477L21.4229 58.2144L25.5104 56.9856L12.7104 14.3189L8.62293 15.5477ZM25.5061 58.2272L34.0395 30.4939L29.9605 29.2395L21.4272 56.9728L25.5061 58.2272ZM25.6853 15.5477L38.4896 58.2144L42.5728 56.9856L29.7728 14.3189L25.6853 15.5477ZM54.5621 9.99253L54.0032 9.56587L51.4389 12.9792L52.0021 13.4059L54.5621 9.99253ZM42.4789 21.0859L45.2224 24.7467L48.6357 22.1867L45.8923 18.5301L42.4789 21.0859ZM44.1259 9.56587C42.3802 10.8754 41.2261 12.8246 40.9172 14.9849C40.6084 17.1452 41.1701 19.3397 42.4789 21.0859L45.8923 18.5301C45.2624 17.6892 44.9922 16.6283 45.141 15.5883C45.2898 14.5482 45.8455 13.6098 46.6859 12.9792L44.1259 9.56587ZM54.0032 9.56587C52.5791 8.49753 50.8427 7.92 49.0624 7.92C47.2821 7.92 45.5499 8.49753 44.1259 9.56587L46.6859 12.9792C47.3714 12.4648 48.2053 12.1867 49.0624 12.1867C49.9195 12.1867 50.7534 12.4648 51.4389 12.9792L54.0032 9.56587ZM57.5787 20.7317C58.3272 18.8595 58.4335 16.7928 57.889 14.8514C57.3444 12.9101 56.1752 11.2023 54.5621 9.99253L52.0021 13.4059C53.7771 14.7371 54.4341 17.088 53.6107 19.1445L57.5787 20.7317ZM8.53333 17.0667H17.0667V12.8H8.53333V17.0667ZM21.3333 17.0667H34.1333V12.8H21.3333V17.0667ZM42.5131 58.3936L57.5787 20.7317L53.6192 19.1445L38.5536 56.8064L42.5131 58.3936Z" fill="#000201"/>
</g>
<defs>
<clipPath id="clip0_44_18">
<rect width="64" height="64" fill="white"/>
</clipPath>
</defs>
</svg>
