<svg width="552" height="123" viewBox="0 0 552 123" fill="none" xmlns="http://www.w3.org/2000/svg">
<path d="M538.006 96.14C536.128 96.14 534.507 95.4573 533.142 94.092C531.862 92.7267 531.222 91.0627 531.222 89.1C531.222 87.1373 531.862 85.516 533.142 84.236C534.507 82.8707 536.128 82.188 538.006 82.188C539.883 82.188 541.504 82.8707 542.87 84.236C544.235 85.516 544.918 87.1373 544.918 89.1C544.918 91.0627 544.235 92.7267 542.87 94.092C541.504 95.4573 539.883 96.14 538.006 96.14Z" fill="black"/>
<path d="M484.474 27.66C493.263 27.66 500.005 29.8787 504.698 34.316C509.391 38.668 511.738 45.1533 511.738 53.772V95.5L503.034 95.5V85.004C500.986 88.5027 497.957 91.2333 493.946 93.196C490.021 95.1587 485.327 96.14 479.866 96.14C472.357 96.14 466.383 94.348 461.946 90.764C457.509 87.18 455.29 82.444 455.29 76.556C455.29 70.8387 457.338 66.2307 461.434 62.732C465.615 59.2333 472.229 57.484 481.274 57.484H502.65V53.388C502.65 47.5853 501.029 43.1907 497.786 40.204C494.543 37.132 489.807 35.596 483.578 35.596C479.311 35.596 475.215 36.3213 471.29 37.772C467.365 39.1373 463.994 41.0573 461.178 43.532L457.082 36.748C460.495 33.8467 464.591 31.628 469.37 30.092C474.149 28.4707 479.183 27.66 484.474 27.66ZM481.274 88.972C486.394 88.972 490.789 87.82 494.458 85.516C498.127 83.1267 500.858 79.7133 502.65 75.276V64.268H481.53C470.01 64.268 464.25 68.2787 464.25 76.3C464.25 80.2253 465.743 83.34 468.73 85.644C471.717 87.8627 475.898 88.972 481.274 88.972Z" fill="black"/>
<path d="M435.237 0.523994V95.5H426.533V82.188C423.802 86.7107 420.176 90.1667 415.653 92.556C411.216 94.9453 406.181 96.14 400.549 96.14C394.234 96.14 388.517 94.6893 383.397 91.788C378.277 88.8867 374.266 84.8333 371.365 79.628C368.464 74.4227 367.013 68.492 367.013 61.836C367.013 55.18 368.464 49.2493 371.365 44.044C374.266 38.8387 378.277 34.828 383.397 32.012C388.517 29.1107 394.234 27.66 400.549 27.66C406.01 27.66 410.917 28.812 415.269 31.116C419.706 33.3347 423.333 36.62 426.149 40.972V0.523994H435.237ZM401.317 88.076C406.01 88.076 410.234 87.0093 413.989 84.876C417.829 82.6573 420.816 79.5427 422.949 75.532C425.168 71.5213 426.277 66.956 426.277 61.836C426.277 56.716 425.168 52.1507 422.949 48.14C420.816 44.1293 417.829 41.0573 413.989 38.924C410.234 36.7053 406.01 35.596 401.317 35.596C396.538 35.596 392.229 36.7053 388.389 38.924C384.634 41.0573 381.648 44.1293 379.429 48.14C377.296 52.1507 376.229 56.716 376.229 61.836C376.229 66.956 377.296 71.5213 379.429 75.532C381.648 79.5427 384.634 82.6573 388.389 84.876C392.229 87.0093 396.538 88.076 401.317 88.076Z" fill="black"/>
<path d="M355.473 87.948V95.5H300.689V89.484L343.057 35.852H301.457V28.172H354.705V34.188L312.337 87.948H355.473Z" fill="black"/>
<path d="M273.311 41.356C271.178 36.8333 268.021 33.42 263.839 31.116C259.573 28.812 254.325 27.66 248.095 27.66V36.492L250.271 36.364C257.354 36.364 262.901 38.54 266.911 42.892C270.922 47.244 272.927 53.3453 272.927 61.196V95.5H282.015V28.172H273.311V41.356Z" fill="black"/>
<path d="M200.485 27.66C206.8 27.66 212.517 29.1107 217.637 32.012C222.757 34.828 226.768 38.8387 229.669 44.044C232.57 49.2493 234.021 55.18 234.021 61.836C234.021 68.492 232.57 74.4227 229.669 79.628C226.768 84.8333 222.757 88.8867 217.637 91.788C212.517 94.6893 206.8 96.14 200.485 96.14C194.853 96.14 189.776 94.9453 185.253 92.556C180.816 90.1667 177.232 86.7107 174.501 82.188V95.5H165.797V0.523994H174.885V40.972C177.701 36.62 181.285 33.3347 185.637 31.116C190.074 28.812 195.024 27.66 200.485 27.66ZM199.845 88.076C204.538 88.076 208.805 87.0093 212.645 84.876C216.485 82.6573 219.472 79.5427 221.605 75.532C223.824 71.5213 224.933 66.956 224.933 61.836C224.933 56.716 223.824 52.1507 221.605 48.14C219.472 44.1293 216.485 41.0573 212.645 38.924C208.805 36.7053 204.538 35.596 199.845 35.596C195.066 35.596 190.757 36.7053 186.917 38.924C183.162 41.0573 180.176 44.1293 177.957 48.14C175.824 52.1507 174.757 56.716 174.757 61.836C174.757 66.956 175.824 71.5213 177.957 75.532C180.176 79.5427 183.162 82.6573 186.917 84.876C190.757 87.0093 195.066 88.076 199.845 88.076Z" fill="black"/>
<path d="M115.306 61.792L131.177 47.2V28H140.265V122.976H131.177V58.592L90.9855 95.328L79.7215 95.328L108.521 67.808L77.0335 28H88.1695L115.306 61.792Z" fill="black"/>
<path d="M39.526 27.66C30.7367 27.66 23.9953 29.8787 19.302 34.316C14.6087 38.668 12.262 45.1533 12.262 53.772V95.5H20.966V85.004C23.014 88.5027 26.0433 91.2333 30.054 93.196C33.9793 95.1587 38.6727 96.14 44.134 96.14C51.6433 96.14 57.6167 94.348 62.054 90.764C66.4913 87.18 68.71 82.444 68.71 76.556C68.71 70.8387 66.662 66.2307 62.566 62.732C58.3847 59.2333 51.7713 57.484 42.726 57.484H21.35V53.388C21.35 47.5853 22.9713 43.1907 26.214 40.204C29.4567 37.132 34.1927 35.596 40.422 35.596C44.6887 35.596 48.7847 36.3213 52.71 37.772C56.6353 39.1373 60.006 41.0573 62.822 43.532L66.918 36.748C63.5047 33.8467 59.4087 31.628 54.63 30.092C49.8513 28.4707 44.8167 27.66 39.526 27.66ZM42.726 88.972C37.606 88.972 33.2113 87.82 29.542 85.516C25.8727 83.1267 23.142 79.7133 21.35 75.276V64.268H42.47C53.99 64.268 59.75 68.2787 59.75 76.3C59.75 80.2253 58.2567 83.34 55.27 85.644C52.2833 87.8627 48.102 88.972 42.726 88.972Z" fill="black"/>
</svg>
